<?xml version="1.0" encoding="UTF-8"?>
<!-- Generated by Pixelmator Pro 3.3.1 -->
<svg width="338" height="247" viewBox="0 0 338 247" xmlns="http://www.w3.org/2000/svg" xmlns:xlink="http://www.w3.org/1999/xlink">
    <g id="Layerx00201">
        <path id="Path" fill="#000000" stroke="none" d="M 302.299988 72.399994 L 302.299988 75.699997 L 321.799988 75.699997 L 290 149.5 L 259.700012 75.699997 L 279.399994 75.699997 L 279.399994 72.399994 L 221.899994 72.399994 L 221.899994 75.699997 L 238.100006 75.699997 L 278.799988 176.300003 L 268.399994 202.600006 C 265.899994 208.899994 263.600006 214.100006 261.600006 218.399994 C 259.600006 222.699997 257.5 226.199997 255.5 228.800003 C 253.5 231.5 251.399994 233.399994 249.300003 234.600006 C 247.199997 235.800003 244.899994 236.399994 242.399994 236.399994 C 240.5 236.399994 239 236.100006 237.899994 235.5 C 236.800003 234.899994 236.199997 233.600006 236.199997 231.5 C 236.199997 229.100006 236.800003 227 238.199997 225 C 239.5 223.100006 240.199997 221 240.199997 218.800003 C 240.199997 217.199997 239.800003 215.899994 239 214.800003 C 238.199997 213.699997 237.300003 212.899994 236.199997 212.199997 C 235.100006 211.600006 234 211.100006 232.699997 210.899994 C 231.399994 210.699997 230.300003 210.5 229.199997 210.5 C 226 210.5 223.399994 211.5 221.199997 213.5 C 219 215.399994 217.899994 218.399994 217.899994 222.300003 C 217.899994 223.699997 218.100006 225.399994 218.600006 227.5 C 219.100006 229.5 220.100006 231.5 221.600006 233.399994 C 223.199997 235.300003 225.300003 236.899994 228.100006 238.300003 C 230.800003 239.699997 234.5 240.399994 239 240.399994 C 242.699997 240.399994 246.100006 239.800003 248.899994 238.399994 C 251.699997 237.100006 254.399994 235.100006 256.700012 232.399994 C 259.100006 229.699997 261.5 226.300003 263.700012 222 C 265.899994 217.800003 268.100006 212.899994 270.299988 207.199997 C 273 200.300003 275.600006 193.399994 278.299988 186.699997 C 281 179.899994 283.799988 173.100006 286.799988 166.399994 L 325.5 75.699997 L 338.200012 75.699997 L 338.200012 72.399994 L 302.299988 72.399994 L 302.299988 72.399994 Z"/>
        <path id="path1" fill="#000000" stroke="none" d="M 177.300003 79.800003 C 174 76.399994 169.699997 73.800003 164.300003 71.699997 C 158.899994 69.699997 152.199997 68.699997 144.300003 68.699997 C 137.699997 68.699997 131.800003 69.5 126.699997 71.100006 C 121.599998 72.699997 117.300003 74.800003 114 77.5 C 110.599998 80.199997 108.099998 83.300003 106.400002 86.699997 C 104.699997 90.199997 103.800003 93.800003 103.800003 97.600006 C 103.800003 100.899994 104.5 103.600006 105.900002 105.699997 C 107.300003 107.800003 110.900002 108.800003 116.599998 108.800003 C 119.900002 108.800003 122.400002 108 124.199997 106.399994 C 125.900002 104.699997 126.800003 102.699997 126.800003 100.300003 C 126.800003 98.899994 126.5 96.800003 126 93.899994 C 125.5 91 125.199997 88.100006 125.199997 85.199997 C 125.199997 80.699997 127.099998 77.399994 130.800003 75.399994 C 134.5 73.399994 139.199997 72.399994 145 72.399994 C 149.300003 72.399994 152.800003 73 155.399994 74.199997 C 158 75.399994 160 77.199997 161.399994 79.5 C 162.800003 81.899994 163.800003 84.699997 164.300003 88 C 164.800003 91.300003 165.100006 95.100006 165.100006 99.199997 C 165.100006 100.399994 165.100006 104.699997 165 110.600006 C 164.899994 111 164.899994 111.5 164.800003 111.800003 C 164 114.800003 162.600006 117.300003 160.5 119.400002 C 158.399994 121.5 155.5 123.099998 151.800003 124.400002 C 148.100006 125.800003 143.300003 127.400002 137.600006 129.399994 C 132.699997 131 128 132.399994 123.099998 133.800003 C 118.300003 135.199997 114 137 110.099998 139.100006 C 106.199997 141.199997 103 144.199997 100.599998 147.800003 C 98.199997 151.5 96.900002 156.300003 96.900002 162.300003 C 96.900002 164.899994 97.300003 167.699997 98.099998 170.800003 C 98.900002 173.800003 100.5 176.600006 102.900002 179 C 103.900002 180 105.099998 180.899994 106.5 181.899994 C 108.699997 180.800003 110.599998 179.300003 112.300003 177.399994 C 116 173 118.400002 167.899994 119.400002 162.100006 L 119.400002 162.100006 C 119.300003 161.100006 119.300003 160.100006 119.300003 159.100006 C 119.300003 152.899994 120.800003 147.800003 123.800003 143.600006 C 126.800003 139.399994 131.100006 136.300003 136.800003 134 L 156.600006 126.099998 C 161.399994 124.099998 164 122.099998 164.899994 120.099998 C 164.800003 133.300003 164.699997 149.300003 164.600006 159 C 164 162.699997 162.899994 166.300003 161.199997 169.5 C 159.300003 173.199997 156.600006 176.300003 153 178.800003 C 149.399994 181.199997 144.600006 182.5 138.899994 182.5 C 134.899994 182.5 131.600006 181.800003 129 180.399994 C 126.5 179 124.5 177.199997 123.099998 175 C 122.199997 173.600006 121.599998 172.100006 121 170.5 C 120.900002 170.699997 120.900002 170.899994 120.800003 171.100006 C 119.800003 173.899994 118.099998 176.5 116 179 C 114.300003 180.899994 112.400002 182.5 110 184 C 110.900002 184.399994 112 184.899994 113.099998 185.300003 C 117.400002 187 123.300003 187.699997 130.5 187.699997 C 136.899994 187.699997 142.199997 187 146.300003 185.5 C 150.5 184.100006 153.800003 182.199997 156.300003 180 C 158.800003 177.800003 160.699997 175.600006 161.899994 173.199997 C 163 171 163.800003 169.300003 164.600006 167.800003 C 166 174 168.5 178.800003 172.199997 182.300003 C 175.399994 185.300003 180.300003 187 186.699997 187.399994 L 186.699997 104.5 C 186.699997 99.800003 186 95.399994 184.600006 91.100006 C 183.199997 86.899994 180.899994 83 177.5 79.699997 L 177.300003 79.800003 Z"/>
        <path id="path2" fill="#000000" stroke="none" d="M 30.799999 50.600006 C 34.599998 50.600006 37.900002 49.199997 40.599998 46.600006 C 43.299999 43.899994 44.599998 40.600006 44.599998 36.800003 C 44.599998 33 43.200001 29.699997 40.599998 27 C 37.900002 24.300003 34.599998 23 30.799999 23 C 27 23 23.700001 24.399994 21 27 C 18.299999 29.699997 17 33 17 36.800003 C 17 40.600006 18.4 43.899994 21 46.600006 C 23.700001 49.199997 27 50.600006 30.799999 50.600006 Z"/>
        <path id="path3" fill="#000000" stroke="none" d="M 0 72.399994 L 0 76.100006 L 20.1 76.100006 L 20.1 187.5 L 62.5 187.5 L 62.5 183.899994 L 42.400002 183.899994 L 42.400002 72.399994 Z"/>
        <path id="path4" fill="#000000" stroke="none" d="M 97.400002 184.100006 C 95.699997 184.100006 93.900002 183.800003 92.099998 183.300003 C 90.300003 182.800003 88.599998 181.699997 87.099998 180.100006 C 85.5 178.399994 84.300003 176.100006 83.300003 173.100006 C 82.400002 170.100006 81.900002 166.100006 81.900002 161.199997 L 81.900002 76.100006 L 107.199997 76.100006 L 107.199997 72.399994 L 81.699997 72.399994 L 81.699997 36.800003 C 80 38.199997 78.199997 39.199997 76.199997 39.800003 C 74.300003 40.399994 72 40.699997 69.400002 40.699997 C 66.400002 40.699997 64.400002 40.600006 63.099998 40.199997 C 61.900002 39.800003 60.599998 39.399994 59.200001 38.899994 L 59.200001 158.899994 C 59.200001 168.100006 61.700001 175.199997 66.900002 180.199997 C 72 185.199997 81.099998 187.800003 94.099998 187.800003 C 99.300003 187.800003 103.699997 187 107.099998 185.399994 C 108 185 108.800003 184.5 109.599998 184.100006 C 108.400002 183.5 107.199997 182.800003 106.099998 182.199997 C 103.699997 183.399994 100.800003 184.199997 97.400002 184.100006 L 97.400002 184.100006 Z"/>
        <path id="path5" fill="#000000" stroke="none" d="M 48 235 C 45.599998 235 44.299999 233.300003 44.299999 231.300003 C 44.299999 230.399994 44.700001 229.399994 44.900002 228.800003 L 48.099998 218.800003 C 48.400002 217.899994 48.599998 217.100006 48.599998 216.5 C 48.599998 215.800003 48.099998 215.699997 47.700001 215.699997 C 45.700001 215.699997 41.400002 219.800003 40.5 223 L 37.099998 234.300003 C 37 234.5 36.700001 234.699997 36.5 234.699997 C 34.900002 234.600006 33.400002 234.600006 31.799999 234.699997 C 31.700001 234.699997 31.4 234.600006 31.4 234.300003 L 35.900002 218.800003 C 36.200001 217.899994 36.299999 217.100006 36.299999 216.5 C 36.299999 215.800003 35.799999 215.699997 35.400002 215.699997 C 33.200001 215.699997 29.1 220.800003 28.5 223 L 25.299999 234.300003 C 25.200001 234.699997 24.799999 234.699997 24.4 234.699997 C 23 234.600006 21.5 234.600006 20 234.699997 C 19.799999 234.699997 19.5 234.600006 19.6 234.300003 L 24.299999 216.800003 C 24.4 216.199997 23.700001 216.100006 23.1 216.199997 C 22.200001 216.5 21 217 19.9 220 C 19.799999 220.5 19.1 220.300003 19.299999 219.699997 C 20.5 215.199997 24.1 214.5 26 214.699997 C 28.5 215 29.6 216.100006 29.5 217.800003 C 29.4 219 29.200001 219.699997 29 220.600006 C 28.9 220.699997 29.1 220.699997 29.1 220.699997 C 31.299999 217.800003 33.599998 214.699997 37.299999 214.699997 C 39.200001 214.699997 41.400002 215.300003 41.400002 218.399994 C 41.400002 219 41.299999 219.600006 41.299999 220 C 41.299999 220.100006 41.400002 220.100006 41.400002 220.100006 C 43.299999 217.899994 45.599998 214.800003 49.5 214.800003 C 52.400002 214.800003 53.900002 216.300003 53.900002 218.5 C 53.900002 219.899994 53 222.399994 52.200001 224.600006 L 50.200001 230.300003 C 49.900002 231.199997 49.599998 232.300003 49.599998 232.699997 C 49.599998 233.5 50 233.600006 50.400002 233.600006 C 51.799999 233.600006 53.700001 230.899994 54 230 C 54.099998 229.699997 54.799999 230.100006 54.599998 230.399994 C 53.5 232.600006 51.400002 235.300003 48.099998 235.300003 L 48 235 Z"/>
        <path id="path6" fill="#000000" stroke="none" d="M 68.5 215.300003 C 67.099998 215.300003 65.900002 215.800003 64 221.600006 L 62.599998 225.699997 C 61.900002 227.899994 61 231.800003 61 232.5 C 61 233.800003 61.799999 234.199997 62.5 234.199997 C 64 234.199997 66.599998 232.699997 68.199997 228.600006 C 69.699997 224.800003 71.099998 220.600006 71.099998 218.699997 C 71.099998 216 69.699997 215.300003 68.5 215.300003 L 68.5 215.300003 Z M 73.599998 230.100006 C 73.300003 231 73 232.100006 73 232.5 C 73 233.300003 73.400002 233.399994 73.800003 233.399994 C 75.199997 233.399994 77.099998 230.699997 77.400002 229.800003 C 77.699997 229.399994 78.199997 229.899994 78 230.199997 C 76.900002 232.399994 74.800003 235.100006 71.5 235.100006 C 69.300003 235.100006 68 233.100006 68 230.600006 C 68 230.5 67.900002 230.5 67.900002 230.600006 C 67 232.5 64.699997 235.100006 61.700001 235.100006 C 58.200001 235.100006 56.299999 232.100006 56.299999 228 C 56.299999 222.800003 60.799999 214.5 67.699997 214.5 C 70 214.5 71.199997 215.699997 71.400002 217.800003 C 71.5 217.899994 71.5 217.800003 71.5 217.800003 L 72.300003 215.199997 C 72.400002 215.100006 72.5 214.699997 72.599998 214.699997 C 74.300003 215 75.599998 214.899994 77.699997 214.800003 C 77.800003 214.800003 78 214.899994 77.900002 215 L 73.400002 230.100006 L 73.400002 230.100006 L 73.599998 230.100006 Z"/>
        <path id="path7" fill="#000000" stroke="none" d="M 91.400002 215 C 89.099998 215.100006 88.400002 219.100006 88.199997 220.5 C 87.800003 222.600006 87.099998 225 87.199997 226.5 C 87.300003 227.5 87.800003 228.199997 88.900002 228.100006 C 90.599998 228 91.099998 227.100006 92.099998 222.699997 C 92.699997 220.399994 93.300003 218.300003 93.099998 216.899994 C 93 215.600006 92.300003 214.800003 91.400002 215 L 91.400002 215 Z M 91.300003 236.5 C 89.099998 236.600006 86 237 84.800003 237 C 82.599998 237.100006 81.300003 240 81.300003 241.800003 C 81.400002 245.199997 84.599998 246.100006 87.599998 246 C 91.300003 245.899994 97.099998 242.800003 96.900002 238.399994 C 96.699997 236.100006 94.300003 236.199997 91.300003 236.5 L 91.300003 236.5 Z M 100.099998 218.800003 C 98.699997 218.899994 98 217.899994 97.900002 216.800003 C 97.800003 215.800003 98.400002 215.199997 98.400002 214.899994 C 98.400002 214.800003 98.300003 214.600006 98.099998 214.600006 C 97.599998 214.600006 96.5 215.800003 96.199997 216.5 C 96.099998 216.600006 96.099998 216.699997 96.300003 216.899994 C 97.099998 218.100006 97.599998 219.399994 97.699997 220.699997 C 97.900002 225.199997 93.800003 228.300003 89.599998 228.5 C 88.699997 228.600006 88 228.5 87.400002 228.300003 C 86.900002 228.199997 86.599998 228.100006 86.199997 228.100006 C 84.5 228.199997 81.900002 229.300003 82 230.899994 C 82.099998 232.100006 82.900002 232.300003 86.199997 232.100006 C 87.400002 232 91.599998 231.600006 93.099998 231.5 C 96.099998 231.300003 98.300003 232.5 98.5 235.800003 C 98.800003 242.100006 92.800003 246.600006 86.800003 246.899994 C 86.599998 246.899994 86.400002 246.899994 86.199997 246.899994 C 83 246.899994 78.800003 245.699997 78.599998 241.899994 C 78.5 239.300003 80.900002 237.600006 83.099998 236.899994 C 83.300003 236.800003 83.099998 236.800003 83.099998 236.800003 C 81.199997 236.199997 80.300003 235.100006 80.199997 233 C 80.099998 230 83 228 85.699997 227.600006 L 85.699997 227.5 C 83.800003 226.699997 82.699997 224.800003 82.599998 222.699997 C 82.300003 217.899994 86 214.600006 90.400002 214.399994 C 91.800003 214.300003 93.599998 214.600006 95.300003 215.899994 C 95.400002 216 95.400002 216 95.599998 215.800003 C 96.800003 214.100006 97.800003 213.699997 99.199997 213.600006 C 100.800003 213.5 101.900002 214.800003 102 216 C 102.099998 217.699997 101.300003 218.600006 99.900002 218.699997 L 100.099998 218.800003 Z"/>
        <path id="path8" fill="#000000" stroke="none" d="M 113.400002 215.300003 C 112 215.300003 110.800003 215.800003 108.900002 221.600006 L 107.5 225.699997 C 106.800003 227.899994 105.900002 231.800003 105.900002 232.5 C 105.900002 233.800003 106.699997 234.199997 107.400002 234.199997 C 108.900002 234.199997 111.5 232.699997 113.099998 228.600006 C 114.599998 224.800003 116 220.600006 116 218.699997 C 115.900002 216 114.599998 215.300003 113.400002 215.300003 L 113.400002 215.300003 Z M 118.5 230.100006 C 118.199997 231 117.900002 232.100006 117.900002 232.5 C 117.900002 233.300003 118.300003 233.399994 118.699997 233.399994 C 120.099998 233.399994 122 230.699997 122.300003 229.800003 C 122.599998 229.399994 123.099998 229.899994 122.900002 230.199997 C 121.800003 232.399994 119.699997 235.100006 116.400002 235.100006 C 114.199997 235.100006 112.900002 233.100006 112.900002 230.600006 C 112.900002 230.5 112.800003 230.5 112.800003 230.600006 C 111.900002 232.5 109.599998 235.100006 106.599998 235.100006 C 103.099998 235.100006 101.199997 232.100006 101.199997 228 C 101.199997 222.800003 105.699997 214.5 112.599998 214.5 C 114.900002 214.5 116.099998 215.699997 116.300003 217.800003 C 116.400002 217.899994 116.400002 217.800003 116.400002 217.800003 L 117.199997 215.199997 C 117.300003 215.100006 117.400002 214.699997 117.5 214.699997 C 119.199997 215 120.5 214.899994 122.599998 214.800003 C 122.699997 214.800003 122.900002 214.899994 122.800003 215 L 118.300003 230.100006 L 118.300003 230.100006 L 118.5 230.100006 Z"/>
        <path id="path9" fill="#000000" stroke="none" d="M 137.399994 235 C 133.899994 235 130.600006 232.600006 127.5 232.600006 C 127.199997 232.600006 126.900002 232.699997 126.900002 233 C 126.900002 233.300003 127.099998 233.399994 127.099998 233.699997 C 127.099998 234.199997 126.599998 234.699997 125.900002 234.699997 C 125.5 234.699997 125 234.300003 125 233.800003 C 125 233.100006 125.800003 232.100006 126.5 231.5 L 139.5 219.5 L 139.600006 219.199997 C 138.399994 219.600006 137.300003 219.800003 136.199997 219.800003 C 133.100006 219.800003 130.199997 217.100006 128.5 217.100006 C 127.699997 217.100006 127.099998 218.199997 127.099998 218.600006 C 127.099998 218.800003 127.199997 218.800003 127.300003 218.800003 C 127.400002 218.800003 127.599998 218.699997 127.800003 218.699997 C 129 218.699997 129.699997 219.5 129.699997 220.600006 C 129.699997 221.800003 128.899994 222.5 127.800003 222.5 C 126.400002 222.5 125.900002 221.800003 125.599998 220.800003 C 125 218.300003 127.199997 215.199997 131.899994 215.5 C 135.100006 215.699997 138.399994 217.199997 141.199997 217.199997 C 141.5 217.199997 142 216.300003 142 216.100006 C 142 215.800003 141.800003 215.699997 141.800003 215.5 C 141.800003 215 142.199997 214.600006 142.899994 214.600006 C 143.300003 214.600006 143.800003 214.899994 143.800003 215.399994 C 143.800003 216 143.199997 217.300003 142.300003 217.899994 C 142.100006 218.100006 141.800003 218.399994 141.399994 218.699997 L 129.5 229.600006 L 129.600006 229.699997 C 131 229.300003 132.100006 229.100006 133.300003 229.100006 C 136.800003 229.100006 139.899994 232.100006 141.899994 232.100006 C 142.800003 232.100006 143.399994 230.899994 143.399994 230.399994 C 143.399994 230.100006 143.300003 230.100006 143.199997 230.100006 C 143.100006 230.100006 142.800003 230.199997 142.600006 230.199997 C 141.399994 230.199997 140.399994 229.300003 140.399994 228 C 140.399994 226.800003 141.300003 225.899994 142.5 225.899994 C 144.100006 225.899994 144.699997 227 144.699997 228.399994 C 144.699997 231.300003 141.800003 235 137.199997 235 L 137.399994 235 Z"/>
        <path id="path10" fill="#000000" stroke="none" d="M 157.800003 210.600006 C 156.100006 210.600006 154.699997 209.199997 154.699997 207.5 C 154.699997 205.800003 156.100006 204.399994 157.800003 204.399994 C 159.5 204.399994 160.899994 205.800003 160.899994 207.5 C 160.899994 209.199997 159.5 210.600006 157.800003 210.600006 Z M 153.800003 230.100006 C 153.5 231 153.199997 232.100006 153.199997 232.5 C 153.199997 233.300003 153.600006 233.399994 154 233.399994 C 155.399994 233.399994 157.300003 230.699997 157.5 229.899994 C 157.699997 229.600006 158.300003 230 158.100006 230.300003 C 157.199997 232.399994 155.100006 235.100006 152.199997 235.100006 C 148.100006 235.100006 148.100006 231.699997 148.100006 231.399994 C 148.100006 230.699997 148.399994 229.699997 148.600006 228.699997 L 152.5 216.199997 C 152.600006 216 152.199997 215.899994 152.100006 215.899994 L 149.899994 216 C 149.600006 216 149.5 215.199997 150.100006 215.199997 L 154.699997 215.199997 C 156.399994 215.199997 157.399994 215 158.199997 214.600006 C 158.5 214.399994 158.800003 214.300003 158.699997 214.699997 L 153.899994 230.199997 L 153.800003 230.100006 Z"/>
        <path id="path11" fill="#000000" stroke="none" d="M 177.399994 235 C 175 235 173.699997 233.300003 173.699997 231.300003 C 173.699997 230.399994 174.100006 229.399994 174.300003 228.800003 L 177.800003 218.300003 C 178.100006 217.5 178.300003 216.899994 178.300003 216.399994 C 178.300003 215.800003 177.800003 215.800003 177.399994 215.800003 C 175.199997 215.800003 171.100006 220.600006 170.5 223.100006 L 167.300003 234.300003 C 167.199997 234.699997 166.800003 234.800003 166.399994 234.800003 C 164.899994 234.699997 163.399994 234.699997 161.899994 234.800003 C 161.600006 234.800003 161.5 234.600006 161.5 234.399994 L 166.300003 217.300003 C 166.300003 217.300003 166.600006 216 165.100006 216.399994 C 164.199997 216.699997 163 217.199997 161.899994 220.199997 C 161.800003 220.699997 161.100006 220.5 161.300003 219.899994 C 162.5 215.399994 166.100006 214.699997 168 214.899994 C 170.5 215.199997 171.5 216.300003 171.399994 217.899994 C 171.300003 219.100006 171.100006 219.800003 170.899994 220.699997 C 170.800003 220.800003 170.800003 220.899994 170.899994 220.800003 C 171 220.600006 171.100006 220.399994 171.100006 220.399994 C 173.399994 216.300003 175.600006 214.800003 179.100006 214.800003 C 181.800003 214.800003 183.300003 216.300003 183.300003 218.5 C 183.300003 219.899994 182.399994 222.399994 181.600006 224.600006 L 179.600006 230.300003 C 179.300003 231.199997 179 232.300003 179 232.699997 C 179 233.5 179.399994 233.600006 179.800003 233.600006 C 181.199997 233.600006 183.100006 230.899994 183.300003 230 C 183.399994 229.600006 184.100006 229.800003 183.899994 230.399994 C 182.899994 232.600006 180.899994 235.300003 177.600006 235.300003 L 177.399994 235 Z"/>
        <path id="path12" fill="#000000" stroke="none" d="M 198.399994 215 C 196.300003 215 195 218.199997 193.100006 224.399994 C 193 224.5 193.199997 224.600006 193.199997 224.699997 C 193.699997 224.899994 194.399994 225.100006 194.899994 225.100006 C 196.800003 225.100006 197.699997 223.899994 198.399994 222.199997 C 199.100006 220.300003 199.800003 218.5 199.800003 216.899994 C 200 215.5 199.199997 215.100006 198.399994 215 L 198.399994 215 Z M 195.600006 225.5 C 195.199997 225.5 194 225.399994 193.199997 225.199997 C 193 225.100006 193 225.199997 192.899994 225.300003 C 192.399994 227.300003 192 229.300003 192 231.100006 C 192 232.899994 193.199997 234.100006 194.800003 234.100006 C 197.600006 234.100006 200.100006 232.300003 201.399994 229.899994 C 201.5 229.699997 202.100006 230 202 230.199997 C 200.399994 233.199997 197.5 234.899994 193.899994 234.899994 C 189.100006 234.899994 186.600006 231.399994 186.600006 227.5 C 186.600006 221.5 192.899994 214.300003 198.600006 214.399994 C 201.199997 214.5 204.100006 216 204.100006 219 C 204.100006 223.699997 199.5 225.5 195.600006 225.5 L 195.600006 225.5 Z"/>
        <path id="path13" fill="#000000" stroke="none" d="M 174.5 -0.199997 L 174.5 3.399994 L 194.600006 3.399994 L 194.600006 187.5 L 237 187.5 L 237 183.899994 L 216.899994 183.899994 L 216.899994 -0.199997 Z"/>
    </g>
    <g id="Group">
        <path id="path14" fill="#000000" stroke="none" d="M 270.899994 226.699997 C 273.700012 226.699997 275.899994 229 275.899994 231.699997 C 275.899994 234.399994 273.600006 236.699997 270.899994 236.699997 C 268.200012 236.699997 265.899994 234.399994 265.899994 231.699997 C 265.899994 229 268.100006 226.699997 270.899994 226.699997 Z M 270.899994 235.899994 C 273.200012 235.899994 275.100006 234 275.100006 231.699997 C 275.100006 229.399994 273.200012 227.5 270.899994 227.5 C 268.600006 227.5 266.700012 229.399994 266.700012 231.699997 C 266.700012 234 268.600006 235.899994 270.899994 235.899994 Z M 269.200012 229.399994 C 269.200012 229.300003 269.299988 229.100006 269.5 229.100006 L 271.5 229.100006 C 272.399994 229.100006 273.200012 229.600006 273.200012 230.699997 C 273.200012 231.800003 272.5 232.100006 272.100006 232.199997 C 272.399994 232.699997 272.700012 233.300003 272.899994 233.899994 C 273 234.100006 272.899994 234.300003 272.700012 234.300003 L 272.200012 234.300003 C 272.100006 234.300003 272 234.199997 271.899994 234.100006 L 271.100006 232.300003 L 270.100006 232.300003 L 270.100006 234 C 270.100006 234.100006 270 234.300003 269.799988 234.300003 L 269.399994 234.300003 C 269.200012 234.300003 269.100006 234.199997 269.100006 234 L 269.200012 229.399994 L 269.200012 229.399994 Z M 271.399994 231.5 C 271.899994 231.5 272.200012 231.100006 272.200012 230.699997 C 272.200012 230.199997 271.899994 229.899994 271.399994 229.899994 L 270 229.899994 L 270 231.5 L 271.399994 231.5 Z"/>
    </g>
</svg>
